<?xml version="1.0" encoding="UTF-8" standalone="no"?>
<!DOCTYPE svg PUBLIC "-//W3C//DTD SVG 1.0//EN" "http://www.w3.org/TR/2001/REC-SVG-20010904/DTD/svg10.dtd">
<!-- Generated by Microsoft Visio 11.0, SVG Export, v1.0 receptor.svg Page-1 -->
<svg xmlns="http://www.w3.org/2000/svg" xmlns:xlink="http://www.w3.org/1999/xlink" xmlns:ev="http://www.w3.org/2001/xml-events"
		xmlns:v="http://schemas.microsoft.com/visio/2003/SVGExtensions/" width="1.19499in" height="1.17438in"
		viewBox="0 0 86.0394 84.5551" xml:space="preserve" color-interpolation-filters="sRGB" class="st3">
	<v:documentProperties v:langID="2057" v:metric="true" v:viewMarkup="false"/>

	<style type="text/css">
	<![CDATA[
		.st1 {fill:#ffffff;stroke:none;stroke-linecap:round;stroke-linejoin:round;stroke-width:0.75}
		.st2 {fill:#f38279;stroke:#c00000;stroke-linecap:round;stroke-linejoin:round;stroke-width:0.5}
		.st3 {fill:none;fill-rule:evenodd;font-size:12px;overflow:visible;stroke-linecap:square;stroke-miterlimit:3}
	]]>
	</style>

	<g v:mID="0" v:index="1" v:groupContext="foregroundPage">
		<title>Page-1</title>
		<v:pageProperties v:drawingScale="0.0393701" v:pageScale="0.0393701" v:drawingUnits="24" v:shadowOffsetX="8.50394"
				v:shadowOffsetY="-8.50394"/>
		<g id="shape1-1" v:mID="1" v:groupContext="shape" transform="translate(1.63386,-0.75)">
			<title>Sheet.1</title>
			<ellipse cx="41.5276" cy="43.0276" rx="41.5276" ry="41.5276" class="st1"/>
		</g>
		<g id="shape4-3" v:mID="4" v:groupContext="shape" transform="translate(57.1929,-3.36417)">
			<title>Sheet.4</title>
			<path d="M-0 84.56 A58.2978 48.4485 -62.37 0 0 0 5.81 A96.7809 55.6777 0 0 1 0 84.56 Z" class="st2"/>
		</g>
		<g id="shape5-5" v:mID="5" v:groupContext="shape" transform="translate(0.5,-21.1594)">
			<title>Sheet.5</title>
			<path d="M36.34 61.17 L20.64 61.17 L20.64 47.7 L24.38 47.7 L18.71 42.04 L13.04 47.7 L16.78 47.7 L16.78 61.17 L0 61.17
						 L0 65.42 L16.78 65.42 L16.78 84.56 L20.64 84.56 L20.64 65.42 L36.34 65.42 L36.34 78.89 L32.6 78.89 L38.27
						 84.56 L43.94 78.89 L40.2 78.89 L40.2 65.42 L56.69 65.42 L56.69 61.17 L40.2 61.17 L40.2 42.04 L36.34 42.04
						 L36.34 61.17 Z" class="st2"/>
		</g>
	</g>
</svg>
